<svg id="visual" viewBox="0 0 1920 5027" width="1920" height="5027" xmlns="http://www.w3.org/2000/svg" xmlns:xlink="http://www.w3.org/1999/xlink" version="1.1"><path d="M1650 5027L1634 4950.8C1618 4874.7 1586 4722.3 1547.7 4570C1509.3 4417.7 1464.7 4265.3 1477.5 4113C1490.3 3960.7 1560.7 3808.3 1560.7 3656C1560.7 3503.7 1490.3 3351.3 1426.3 3199C1362.3 3046.7 1304.7 2894.3 1250.2 2742C1195.7 2589.7 1144.3 2437.3 1115.5 2285C1086.7 2132.7 1080.3 1980.3 1109.2 1828C1138 1675.7 1202 1523.3 1230.8 1371C1259.7 1218.7 1253.3 1066.3 1218.2 914C1183 761.7 1119 609.3 1106.2 457C1093.3 304.7 1131.7 152.3 1150.8 76.2L1170 0L1920 0L1920 76.2C1920 152.3 1920 304.7 1920 457C1920 609.3 1920 761.7 1920 914C1920 1066.3 1920 1218.7 1920 1371C1920 1523.3 1920 1675.7 1920 1828C1920 1980.3 1920 2132.7 1920 2285C1920 2437.3 1920 2589.7 1920 2742C1920 2894.3 1920 3046.7 1920 3199C1920 3351.3 1920 3503.7 1920 3656C1920 3808.3 1920 3960.7 1920 4113C1920 4265.3 1920 4417.7 1920 4570C1920 4722.3 1920 4874.7 1920 4950.8L1920 5027Z" fill="#9f9f9f"></path><path d="M921 5027L933.7 4950.8C946.3 4874.7 971.7 4722.3 926.8 4570C882 4417.7 767 4265.3 744.7 4113C722.3 3960.7 792.7 3808.3 795.8 3656C799 3503.7 735 3351.3 735 3199C735 3046.7 799 2894.3 802.2 2742C805.3 2589.7 747.7 2437.3 728.5 2285C709.3 2132.7 728.7 1980.3 763.8 1828C799 1675.7 850 1523.3 827.5 1371C805 1218.7 709 1066.3 689.8 914C670.7 761.7 728.3 609.3 779.7 457C831 304.7 876 152.3 898.5 76.2L921 0L1171 0L1151.8 76.2C1132.7 152.3 1094.3 304.7 1107.2 457C1120 609.3 1184 761.7 1219.2 914C1254.3 1066.3 1260.7 1218.7 1231.8 1371C1203 1523.3 1139 1675.7 1110.2 1828C1081.3 1980.3 1087.7 2132.7 1116.5 2285C1145.3 2437.3 1196.7 2589.7 1251.2 2742C1305.7 2894.3 1363.3 3046.7 1427.3 3199C1491.3 3351.3 1561.7 3503.7 1561.7 3656C1561.7 3808.3 1491.3 3960.7 1478.5 4113C1465.7 4265.3 1510.3 4417.7 1548.7 4570C1587 4722.3 1619 4874.7 1635 4950.8L1651 5027Z" fill="#afafaf"></path><path d="M556 5027L565.5 4950.8C575 4874.7 594 4722.3 555.5 4570C517 4417.7 421 4265.3 366.7 4113C312.3 3960.7 299.7 3808.3 306.2 3656C312.7 3503.7 338.3 3351.3 367.2 3199C396 3046.7 428 2894.3 440.8 2742C453.7 2589.7 447.3 2437.3 450.5 2285C453.7 2132.7 466.3 1980.3 466.3 1828C466.3 1675.7 453.7 1523.3 440.8 1371C428 1218.7 415 1066.3 447 914C479 761.7 556 609.3 578.5 457C601 304.7 569 152.3 553 76.2L537 0L922 0L899.5 76.2C877 152.3 832 304.7 780.7 457C729.3 609.3 671.7 761.7 690.8 914C710 1066.3 806 1218.7 828.5 1371C851 1523.3 800 1675.7 764.8 1828C729.7 1980.3 710.3 2132.7 729.5 2285C748.7 2437.3 806.3 2589.7 803.2 2742C800 2894.3 736 3046.7 736 3199C736 3351.3 800 3503.7 796.8 3656C793.7 3808.3 723.3 3960.7 745.7 4113C768 4265.3 883 4417.7 927.8 4570C972.7 4722.3 947.3 4874.7 934.7 4950.8L922 5027Z" fill="#c0c0c0"></path><path d="M191 5027L203.8 4950.8C216.7 4874.7 242.3 4722.3 232.7 4570C223 4417.7 178 4265.3 152.3 4113C126.7 3960.7 120.3 3808.3 123.7 3656C127 3503.7 140 3351.3 140 3199C140 3046.7 127 2894.3 143 2742C159 2589.7 204 2437.3 236 2285C268 2132.7 287 1980.3 267.7 1828C248.3 1675.7 190.7 1523.3 181.2 1371C171.7 1218.7 210.3 1066.3 236 914C261.7 761.7 274.3 609.3 274.3 457C274.3 304.7 261.7 152.3 255.3 76.2L249 0L538 0L554 76.2C570 152.3 602 304.7 579.5 457C557 609.3 480 761.7 448 914C416 1066.3 429 1218.7 441.8 1371C454.7 1523.3 467.3 1675.7 467.3 1828C467.3 1980.3 454.7 2132.7 451.5 2285C448.3 2437.3 454.7 2589.7 441.8 2742C429 2894.3 397 3046.7 368.2 3199C339.3 3351.3 313.7 3503.7 307.2 3656C300.7 3808.3 313.3 3960.7 367.7 4113C422 4265.3 518 4417.7 556.5 4570C595 4722.3 576 4874.7 566.5 4950.8L557 5027Z" fill="#c9c9c9"></path><path d="M0 5027L0 4950.8C0 4874.7 0 4722.3 0 4570C0 4417.7 0 4265.3 0 4113C0 3960.7 0 3808.3 0 3656C0 3503.7 0 3351.3 0 3199C0 3046.7 0 2894.3 0 2742C0 2589.7 0 2437.3 0 2285C0 2132.7 0 1980.3 0 1828C0 1675.7 0 1523.3 0 1371C0 1218.7 0 1066.3 0 914C0 761.7 0 609.3 0 457C0 304.7 0 152.3 0 76.2L0 0L250 0L256.3 76.2C262.7 152.3 275.3 304.7 275.3 457C275.3 609.3 262.7 761.7 237 914C211.3 1066.3 172.7 1218.7 182.2 1371C191.7 1523.3 249.3 1675.7 268.7 1828C288 1980.3 269 2132.7 237 2285C205 2437.3 160 2589.7 144 2742C128 2894.3 141 3046.7 141 3199C141 3351.3 128 3503.7 124.7 3656C121.3 3808.3 127.7 3960.7 153.3 4113C179 4265.3 224 4417.7 233.7 4570C243.3 4722.3 217.7 4874.7 204.8 4950.8L192 5027Z" fill="#d3d3d3"></path></svg>